<?xml version="1.0" encoding="UTF-8" standalone="no"?>
<!-- Created with Inkscape (http://www.inkscape.org/) -->

<svg
   width="125.36652mm"
   height="127.60298mm"
   viewBox="0 0 125.36652 127.60298"
   version="1.1"
   id="svg1"
   xml:space="preserve"
   inkscape:version="1.3.2 (091e20e, 2023-11-25, custom)"
   sodipodi:docname="v3.2.svg"
   inkscape:export-filename="v3-plain.png"
   inkscape:export-xdpi="96"
   inkscape:export-ydpi="96"
   xmlns:inkscape="http://www.inkscape.org/namespaces/inkscape"
   xmlns:sodipodi="http://sodipodi.sourceforge.net/DTD/sodipodi-0.dtd"
   xmlns="http://www.w3.org/2000/svg"
   xmlns:svg="http://www.w3.org/2000/svg"><sodipodi:namedview
     id="namedview1"
     pagecolor="#ffffff"
     bordercolor="#000000"
     borderopacity="0.25"
     inkscape:showpageshadow="2"
     inkscape:pageopacity="0.0"
     inkscape:pagecheckerboard="0"
     inkscape:deskcolor="#d1d1d1"
     inkscape:document-units="mm"
     inkscape:zoom="1.4142136"
     inkscape:cx="353.55338"
     inkscape:cy="166.8772"
     inkscape:window-width="2240"
     inkscape:window-height="1368"
     inkscape:window-x="1184"
     inkscape:window-y="0"
     inkscape:window-maximized="0"
     inkscape:current-layer="svg1"
     showguides="true" /><defs
     id="defs1"><inkscape:path-effect
       effect="fillet_chamfer"
       id="path-effect24"
       is_visible="true"
       lpeversion="1"
       nodesatellites_param="F,0,0,1,0,1.3577904,0,1 @ F,0,1,1,0,1.3577904,0,1 @ F,0,0,1,0,2.4509866,0,1 @ F,0,0,1,0,2.6249916,0,1"
       radius="0"
       unit="px"
       method="auto"
       mode="F"
       chamfer_steps="1"
       flexible="false"
       use_knot_distance="true"
       apply_no_radius="true"
       apply_with_radius="true"
       only_selected="false"
       hide_knots="false" /><inkscape:path-effect
       effect="fillet_chamfer"
       id="path-effect23"
       is_visible="true"
       lpeversion="1"
       nodesatellites_param="F,0,0,1,0,0.90900191,0,1 @ F,0,0,1,0,1.2858883,0,1 @ F,0,0,1,0,3.2549725,0,1 @ F,0,0,1,0,1.0958378,0,1"
       radius="0"
       unit="px"
       method="auto"
       mode="F"
       chamfer_steps="1"
       flexible="false"
       use_knot_distance="true"
       apply_no_radius="true"
       apply_with_radius="true"
       only_selected="false"
       hide_knots="false" /><inkscape:path-effect
       effect="fillet_chamfer"
       id="path-effect36"
       is_visible="true"
       lpeversion="1"
       nodesatellites_param="F,0,0,1,0,0,0,1 @ F,0,0,1,0,0,0,1 @ F,0,0,1,0,0,0,1 @ F,0,0,1,0,0,0,1 @ F,0,0,1,0,0,0,1 | F,0,0,1,0,0,0,1 @ F,0,0,1,0,0,0,1 @ F,0,0,1,0,0,0,1 @ F,0,0,1,0,0,0,1 @ F,0,0,1,0,0,0,1 @ F,0,0,1,0,0,0,1 @ F,0,0,1,0,0,0,1 @ F,0,0,1,0,0,0,1 @ F,0,0,1,0,0,0,1 | F,0,0,1,0,0,0,1 @ F,0,0,1,0,0,0,1 @ F,0,0,1,0,0,0,1 @ F,0,0,1,0,0,0,1 @ F,0,0,1,0,0,0,1 @ F,0,0,1,0,0,0,1 @ F,0,0,1,0,0,0,1 @ F,0,0,1,0,0,0,1 @ F,0,0,1,0,0,0,1 @ F,0,0,1,0,0,0,1 | F,0,0,1,0,0,0,1 @ F,0,0,1,0,0,0,1 @ F,0,0,1,0,0,0,1 @ F,0,0,1,0,0,0,1 @ F,0,0,1,0,0,0,1 @ F,0,0,1,0,0,0,1 @ F,0,0,1,0,0,0,1 @ F,0,0,1,0,0,0,1 | F,0,0,1,0,0,0,1 @ F,0,0,1,0,0,0,1 @ F,0,0,1,0,0,0,1 @ F,0,0,1,0,0,0,1 @ F,0,0,1,0,0,0,1 @ F,0,0,1,0,0,0,1 @ F,0,0,1,0,0,0,1 @ F,0,0,1,0,0,0,1 | F,0,0,1,0,0,0,1 @ F,0,0,1,0,0,0,1 @ F,0,0,1,0,0,0,1 @ F,0,0,1,0,0,0,1 @ F,0,0,1,0,0,0,1 @ F,0,0,1,0,0,0,1 @ F,0,0,1,0,0,0,1 @ F,0,0,1,0,0,0,1 @ F,0,0,1,0,0,0,1 @ F,0,0,1,0,0,0,1 | F,0,0,1,0,0,0,1 @ F,0,0,1,0,0,0,1 @ F,0,0,1,0,0,0,1 @ F,0,0,1,0,0,0,1 @ F,0,0,1,0,0,0,1 @ F,0,0,1,0,0,0,1 @ F,0,0,1,0,0,0,1 @ F,0,0,1,0,0,0,1 | F,0,0,1,0,0,0,1 @ F,0,0,1,0,0,0,1 @ F,0,0,1,0,0,0,1 @ F,0,0,1,0,0.80431394,0,1 @ F,0,0,1,0,0.94231691,0,1 @ F,0,0,1,0,0,0,1 @ F,0,0,1,0,0,0,1 @ F,0,0,1,0,0,0,1 @ F,0,0,1,0,0,0,1 @ F,0,0,1,0,0,0,1 | F,0,0,1,0,0,0,1 @ F,0,0,1,0,0,0,1 @ F,0,0,1,0,0,0,1 @ F,0,0,1,0,0,0,1 @ F,0,0,1,0,0,0,1 @ F,0,0,1,0,0,0,1 @ F,0,0,1,0,0,0,1 @ F,0,0,1,0,0,0,1 @ F,0,0,1,0,0,0,1 @ F,0,0,1,0,0,0,1 @ F,0,0,1,0,0,0,1 | F,0,0,1,0,0,0,1 @ F,0,0,1,0,0,0,1 @ F,0,0,1,0,0,0,1 @ F,0,0,1,0,0,0,1 @ F,0,0,1,0,0,0,1 @ F,0,0,1,0,0,0,1 @ F,0,0,1,0,0,0,1 @ F,0,0,1,0,0,0,1 @ F,0,0,1,0,0,0,1 @ F,0,0,1,0,0,0,1 @ F,0,0,1,0,0,0,1 | F,0,0,1,0,0,0,1 @ F,0,0,1,0,0,0,1 @ F,0,0,1,0,0,0,1 @ F,0,0,1,0,0,0,1 @ F,0,0,1,0,0,0,1 @ F,0,0,1,0,0,0,1 @ F,0,0,1,0,0,0,1 @ F,0,0,1,0,0,0,1 @ F,0,0,1,0,0,0,1 @ F,0,0,1,0,0,0,1 @ F,0,0,1,0,0,0,1"
       radius="0"
       unit="px"
       method="auto"
       mode="F"
       chamfer_steps="1"
       flexible="false"
       use_knot_distance="true"
       apply_no_radius="true"
       apply_with_radius="true"
       only_selected="false"
       hide_knots="false" /><inkscape:path-effect
       effect="fillet_chamfer"
       id="path-effect6"
       is_visible="true"
       lpeversion="1"
       nodesatellites_param="F,0,0,1,0,0.73645279,0,1 @ F,0,0,1,0,0,0,1 @ F,0,0,1,0,0,0,1 @ F,0,0,1,0,0,0,1 @ F,0,0,1,0,0,0,1 @ F,0,0,1,0,0,0,1 @ F,0,0,1,0,0,0,1 @ F,0,0,1,0,0,0,1 @ F,0,0,1,0,1.6130999,0,1 | F,0,0,1,0,0,0,1 @ F,0,0,1,0,0,0,1 @ F,0,0,1,0,0,0,1 @ F,0,0,1,0,0,0,1 @ F,0,0,1,0,0,0,1 @ F,0,0,1,0,2.464069,0,1 @ F,0,0,1,0,2.464069,0,1 @ F,0,0,1,0,0,0,1 @ F,0,0,1,0,0,0,1"
       radius="0"
       unit="px"
       method="auto"
       mode="F"
       chamfer_steps="1"
       flexible="false"
       use_knot_distance="true"
       apply_no_radius="true"
       apply_with_radius="true"
       only_selected="false"
       hide_knots="false" /><inkscape:path-effect
       effect="fillet_chamfer"
       id="path-effect33"
       is_visible="true"
       lpeversion="1"
       nodesatellites_param="F,0,0,1,0,0,0,1 @ F,0,0,1,0,0,0,1 @ F,0,0,1,0,0,0,1 @ F,0,0,1,0,0,0,1 @ F,0,0,1,0,0,0,1 @ F,0,0,1,0,0,0,1 @ F,0,0,1,0,0,0,1 @ F,0,0,1,0,0,0,1 @ F,0,0,1,0,0,0,1 @ F,0,0,1,0,0,0,1 @ F,0,0,1,0,0,0,1 @ F,0,0,1,0,0,0,1 @ F,0,0,1,0,0,0,1 @ F,0,0,1,0,0,0,1 @ F,0,0,1,0,0,0,1 @ F,0,0,1,0,0,0,1 @ F,0,0,1,0,0,0,1 @ F,0,0,1,0,0,0,1 @ F,0,0,1,0,0.36756312,0,1 @ F,0,0,1,0,0,0,1 @ F,0,0,1,0,0,0,1 @ F,0,0,1,0,0,0,1 @ F,0,0,1,0,0,0,1 @ F,0,0,1,0,0,0,1 @ F,0,0,1,0,0,0,1 @ F,0,0,1,0,0,0,1 @ F,0,0,1,0,0,0,1 @ F,0,0,1,0,0,0,1 @ F,0,0,1,0,0,0,1 @ F,0,0,1,0,0,0,1 @ F,0,0,1,0,0,0,1 @ F,0,0,1,0,0,0,1 @ F,0,0,1,0,0,0,1 @ F,0,0,1,0,0.29023985,0,1 @ F,0,0,1,0,0.51536999,0,1 @ F,0,0,1,0,0.40942179,0,1 @ F,0,0,1,0,0.49910385,0,1 @ F,0,0,1,0,0,0,1 @ F,0,0,1,0,0,0,1 @ F,0,0,1,0,0,0,1 @ F,0,0,1,0,0,0,1 @ F,0,0,1,0,0,0,1 @ F,0,0,1,0,0,0,1 @ F,0,0,1,0,0,0,1 @ F,0,0,1,0,0,0,1 @ F,0,0,1,0,0,0,1 @ F,0,0,1,0,0,0,1 @ F,0,0,1,0,0,0,1 @ F,0,0,1,0,0,0,1 @ F,0,0,1,0,0,0,1 @ F,0,0,1,0,0,0,1 @ F,0,0,1,0,0,0,1 @ F,0,0,1,0,3.4030842,0,1 @ F,0,0,1,0,3.4030842,0,1 @ F,0,0,1,0,1.2484382,0,1 | F,0,0,1,0,0,0,1 @ F,0,0,1,0,0,0,1 @ F,0,0,1,0,0,0,1 @ F,0,0,1,0,0,0,1 | F,0,0,1,0,0,0,1 @ F,0,0,1,0,0,0,1 @ F,0,0,1,0,0,0,1 @ F,0,0,1,0,0,0,1 | F,0,0,1,0,0,0,1 @ F,0,0,1,0,0.39048776,0,1 @ F,0,0,1,0,0,0,1 @ F,0,0,1,0,0,0,1 @ F,0,0,1,0,0,0,1"
       radius="0"
       unit="px"
       method="auto"
       mode="F"
       chamfer_steps="1"
       flexible="false"
       use_knot_distance="true"
       apply_no_radius="true"
       apply_with_radius="true"
       only_selected="false"
       hide_knots="false" /><inkscape:path-effect
       effect="fillet_chamfer"
       id="path-effect16"
       is_visible="true"
       lpeversion="1"
       nodesatellites_param="F,0,0,1,0,0.32392301,0,1 @ F,0,0,1,0,0.48782061,0,1 @ F,0,0,1,0,0.32392301,0,1 @ F,0,0,1,0,0.32392301,0,1 @ F,0,0,1,0,0.53439431,0,1 @ F,0,0,1,0,0.32392301,0,1 | F,0,0,1,0,0.32392301,0,1 @ F,0,0,1,0,0.44105015,0,1 @ F,0,0,1,0,0.32392301,0,1 @ F,0,0,1,0,0.32392301,0,1 @ F,0,0,1,0,0.4641032,0,1 @ F,0,0,1,0,0.32392301,0,1 | F,0,0,1,0,0.32392301,0,1 @ F,0,0,1,0,0.63838251,0,1 @ F,0,0,1,0,0.32392301,0,1 @ F,0,0,1,0,0.32392301,0,1 @ F,0,0,1,0,0.70462712,0,1 @ F,0,0,1,0,0.32392301,0,1"
       radius="0"
       unit="px"
       method="auto"
       mode="F"
       chamfer_steps="1"
       flexible="false"
       use_knot_distance="true"
       apply_no_radius="true"
       apply_with_radius="true"
       only_selected="false"
       hide_knots="false" /><inkscape:path-effect
       effect="fillet_chamfer"
       id="path-effect12"
       is_visible="true"
       lpeversion="1"
       nodesatellites_param="F,0,1,1,0,0.10801581,0,1 @ F,0,1,1,0,0.10801581,0,1 @ F,0,1,1,0,0.10801581,0,1 @ F,0,1,1,0,0.10801581,0,1 | F,0,1,1,0,0.10801581,0,1 @ F,0,1,1,0,0.10801581,0,1 @ F,0,1,1,0,0.10801581,0,1 @ F,0,1,1,0,0.10801581,0,1 | F,0,1,1,0,0.10801581,0,1 @ F,0,1,1,0,0.10801581,0,1 @ F,0,1,1,0,0.10801581,0,1 @ F,0,0,1,0,0.10801581,0,1"
       radius="0"
       unit="px"
       method="auto"
       mode="F"
       chamfer_steps="1"
       flexible="false"
       use_knot_distance="true"
       apply_no_radius="true"
       apply_with_radius="true"
       only_selected="false"
       hide_knots="false" /><inkscape:path-effect
       effect="fillet_chamfer"
       id="path-effect26-9"
       is_visible="true"
       lpeversion="1"
       nodesatellites_param="F,0,0,1,0,0,0,1 @ F,0,0,1,0,0,0,1 @ F,0,0,1,0,0,0,1 @ F,0,0,1,0,0,0,1 @ F,0,0,1,0,0,0,1 @ F,0,0,1,0,0,0,1 @ F,0,0,1,0,0,0,1 @ F,0,0,1,0,0,0,1 @ F,0,0,1,0,0,0,1 @ F,0,0,1,0,0,0,1 @ F,0,0,1,0,0,0,1 @ F,0,0,1,0,0,0,1 @ F,0,0,1,0,0.19387508,0,1 @ F,0,0,1,0,0.23854001,0,1 @ F,0,0,1,0,0,0,1 @ F,0,0,1,0,0,0,1 @ F,0,0,1,0,0.13091012,0,1 @ F,0,0,1,0,0.17237161,0,1 @ F,0,0,1,0,0,0,1 @ F,0,0,1,0,0,0,1 @ F,0,0,1,0,0.15114223,0,1 @ F,0,0,1,0,0.29072964,0,1 @ F,0,0,1,0,0.41908462,0,1 @ F,0,0,1,0,0,0,1 @ F,0,0,1,0,0.31406855,0,1 @ F,0,0,1,0,0,0,1 @ F,0,0,1,0,0,0,1 @ F,0,0,1,0,0.26338739,0,1 @ F,0,0,1,0,0.12860931,0,1 @ F,0,0,1,0,0,0,1 @ F,0,0,1,0,0.12611797,0,1 @ F,0,0,1,0,0.29198596,0,1 @ F,0,0,1,0,0.079351774,0,1 @ F,0,0,1,0,0.10563536,0,1 @ F,0,0,1,0,0.23215778,0,1 @ F,0,0,1,0,0,0,1 @ F,0,0,1,0,0.12805848,0,1 @ F,0,0,1,0,0,0,1 @ F,0,0,1,0,0,0,1"
       radius="0"
       unit="px"
       method="auto"
       mode="F"
       chamfer_steps="1"
       flexible="false"
       use_knot_distance="true"
       apply_no_radius="true"
       apply_with_radius="true"
       only_selected="false"
       hide_knots="false" /></defs><path
     id="path3"
     style="display:inline;fill:#000000;fill-opacity:1;stroke-width:7.11244"
     inkscape:label="Luna"
     d="m 87.400867,82.86626 c -34.619066,-2.23e-4 -62.683485,29.37765 -62.683513,65.61718 0.0498,13.58559 4.126711,26.82005 11.668022,37.87676 H 52.96731 l 4.578531,-48.04306 c 0.0067,-0.0707 -0.03141,-0.16589 -0.08372,-0.21394 -0.523508,-0.48101 -0.82377,-0.93936 -0.8785,-1.67432 -0.01497,-0.99612 0.790576,-1.76009 1.399398,-2.51147 0.04345,-0.0536 0.04157,-0.1413 -0.0036,-0.19431 -1.246304,-1.46173 -2.866285,-2.66339 -3.32729,-4.4978 -0.0099,-0.0394 -0.01925,-0.079 -0.02806,-0.11897 -0.03441,-0.15607 -0.04527,-0.41583 -0.02067,-0.57516 0.172914,-1.12015 0.978152,-2.06048 4.984192,-3.14709 0.04229,-0.0115 0.07648,-0.0559 0.07648,-0.0997 v -6.13347 c 0,-0.0583 -0.0284,-0.14362 -0.06356,-0.19017 -0.434646,-0.57546 -1.028232,-1.17546 -1.132747,-2.01797 -0.01956,-0.15768 -0.04328,-0.31416 -0.03514,-0.45423 0.02509,-0.43172 0.303094,-0.92149 0.72591,-1.32162 0.14739,-0.13949 0.422504,-0.32088 0.596731,-0.42506 l 1.504577,-0.89967 c 0.06425,-0.0494 0.102639,-0.12519 0.104386,-0.20619 l 0.186035,-8.64237 c -0.401388,-0.50987 -0.787114,-0.99748 -0.896069,-1.63452 0.04099,-2.76117 1.280921,-5.114194 3.505212,-6.852816 0.850884,-0.673227 2.299052,-0.961898 3.312256,-1.277117 0.899853,-0.373964 1.392495,-1.062324 1.606104,-1.992127 -0.60408,-0.279158 -0.809153,-0.521504 -1.068669,-1.09244 -0.377756,-2.524515 3.931014,-3.856824 4.07107,-0.02377 -0.07085,0.403526 -0.408622,0.862837 -0.784966,1.013375 -0.362598,3.791162 5.717353,0.237375 7.041634,9.722075 0.06882,0.27175 0.109153,0.52367 0.03928,0.98237 -0.06914,0.28437 -0.279524,0.40941 -0.429432,0.66663 -0.05343,0.0917 -0.08264,0.26087 -0.08371,0.36794 l -0.087,8.64514 c -0.0016,0.16029 0.05981,0.4068 0.178963,0.50965 0.146487,0.12644 0.361421,0.28305 0.56844,0.43385 0.230078,0.16758 0.598617,0.44538 0.827696,0.61431 l 0.355893,0.26244 c 0.181986,0.13421 0.466035,0.3681 0.597977,0.55132 0.138052,0.1917 0.241898,0.39791 0.314927,0.5978 0.09438,0.25833 0.105223,0.70889 0.02085,0.97068 -0.153634,0.47666 -0.456877,0.94321 -0.801642,1.33282 -0.04791,0.0541 -0.088,0.15559 -0.08837,0.22789 l -0.02997,5.92057 c -4.8e-4,0.0952 0.06966,0.20368 0.157097,0.24133 1.847041,0.79534 4.001346,1.40472 4.745963,3.1688 0.170445,0.64705 0.09754,0.8701 -0.07855,1.2578 -1.051317,1.94582 -2.14238,2.77214 -3.552238,4.07831 -0.06095,0.0565 -0.05161,0.13617 0.02015,0.1788 0.989159,0.5875 1.61078,1.10994 1.577167,2.56418 0.01745,0.44814 -0.238625,0.77976 -0.495573,1.12241 l -0.425814,0.57516 4.552177,48.23375 h 52.194745 c 7.54131,-11.05671 11.61822,-24.29117 11.66802,-37.87676 -0.0174,-6.53152 -0.96632,-13.02371 -2.81533,-19.26187 L 83.414862,113.55197 a 4.314081,4.314081 52.055372 0 1 -3.285846,-4.21408 l 0.0084,-1.49386 a 5.1735965,5.1735965 123.65896 0 1 3.151618,-4.73299 L 115.17462,89.573164 c 0.63466,-0.269461 0.67221,-0.779931 0.0681,-1.112129 C 106.13397,83.452357 94.135116,82.91575 87.400867,82.86626 Z M 40.683305,192.13918 c 1.74186,2.06908 3.606599,4.02116 5.583122,5.8446 h 5.593457 l 0.557072,-5.8446 z m 46.083492,0 0.551387,5.8446 h 41.217126 c 1.97652,-1.82344 3.84126,-3.77552 5.58312,-5.8446 z m 1.097091,11.62358 0.134965,1.96325 c 0.01479,0.21515 0.04181,0.5641 0.07961,0.77636 0.20486,1.15029 1.080601,3.69336 5.013014,3.57835 h 15.457455 c 4.41294,-1.60767 8.64032,-3.72683 12.60336,-6.31796 z"
     inkscape:path-effect="#path-effect33"
     inkscape:original-d="m 87.400867,82.86626 c -34.619066,-2.23e-4 -62.683485,29.37765 -62.683513,65.61718 0.0498,13.58559 4.126711,26.82005 11.668022,37.87676 H 52.96731 l 4.578531,-48.04306 c 0.0067,-0.0707 -0.03141,-0.16589 -0.08372,-0.21394 -0.523508,-0.48101 -0.82377,-0.93936 -0.8785,-1.67432 -0.01497,-0.99612 0.790576,-1.76009 1.399398,-2.51147 0.04345,-0.0536 0.04157,-0.1413 -0.0036,-0.19431 -1.246304,-1.46173 -2.866285,-2.66339 -3.32729,-4.4978 -0.0099,-0.0394 -0.01925,-0.079 -0.02806,-0.11897 -0.03441,-0.15607 -0.04527,-0.41583 -0.02067,-0.57516 0.172914,-1.12015 0.978152,-2.06048 4.984192,-3.14709 0.04229,-0.0115 0.07648,-0.0559 0.07648,-0.0997 v -6.13347 c 0,-0.0583 -0.0284,-0.14362 -0.06356,-0.19017 -0.434646,-0.57546 -1.028232,-1.17546 -1.132747,-2.01797 -0.01956,-0.15768 -0.04328,-0.31416 -0.03514,-0.45423 0.0303,-0.5214 0.429504,-1.12747 1.007174,-1.55805 l 1.820044,-1.0883 c 0.06425,-0.0494 0.102639,-0.12519 0.104386,-0.20619 l 0.186035,-8.64237 c -0.401388,-0.50987 -0.787114,-0.99748 -0.896069,-1.63452 0.04099,-2.76117 1.280921,-5.114194 3.505212,-6.852816 0.850884,-0.673227 2.299052,-0.961898 3.312256,-1.277117 0.899853,-0.373964 1.392495,-1.062324 1.606104,-1.992127 -0.60408,-0.279158 -0.809153,-0.521504 -1.068669,-1.09244 -0.377756,-2.524515 3.931014,-3.856824 4.07107,-0.02377 -0.07085,0.403526 -0.408622,0.862837 -0.784966,1.013375 -0.362598,3.791162 5.717353,0.237375 7.041634,9.722075 0.06882,0.27175 0.109153,0.52367 0.03928,0.98237 -0.06914,0.28437 -0.279524,0.40941 -0.429432,0.66663 -0.05343,0.0917 -0.08264,0.26087 -0.08371,0.36794 l -0.08992,8.93537 c -0.0014,0.15009 0.779188,0.65584 1.163236,0.9617 l 1.100191,0.81132 c 0.429994,0.40729 0.649011,0.96837 0.704867,1.38906 -0.05259,0.63779 -0.440126,1.2983 -0.902271,1.82056 -0.04791,0.0541 -0.088,0.15559 -0.08837,0.22789 l -0.02997,5.92057 c -4.8e-4,0.0952 0.06966,0.20368 0.157097,0.24133 1.847041,0.79534 4.001346,1.40472 4.745963,3.1688 0.170445,0.64705 0.09754,0.8701 -0.07855,1.2578 -1.051317,1.94582 -2.14238,2.77214 -3.552238,4.07831 -0.06095,0.0565 -0.05161,0.13617 0.02015,0.1788 0.989159,0.5875 1.61078,1.10994 1.577167,2.56418 0.01745,0.44814 -0.238625,0.77976 -0.495573,1.12241 l -0.425814,0.57516 4.552177,48.23375 h 52.194745 c 7.54131,-11.05671 11.61822,-24.29117 11.66802,-37.87676 -0.0174,-6.53152 -0.96632,-13.02371 -2.81533,-19.26187 L 80.109839,112.74092 80.156611,104.441 116.32377,89.085261 C 107.10452,83.496166 94.405097,82.917734 87.400867,82.86626 Z M 40.683305,192.13918 c 1.74186,2.06908 3.606599,4.02116 5.583122,5.8446 h 5.593457 l 0.557072,-5.8446 z m 46.083492,0 0.551387,5.8446 h 41.217126 c 1.97652,-1.82344 3.84126,-3.77552 5.58312,-5.8446 z m 1.097091,11.62358 0.161746,2.35282 c 0.07385,0.78236 0.589261,4.09606 5.065841,3.96514 h 15.457455 c 4.41294,-1.60767 8.64032,-3.72683 12.60336,-6.31796 z"
     transform="translate(-24.717352,-82.866254)"
     sodipodi:nodetypes="cccccccscsscsssssscccccccccccccscccccsccsccscscccccccccccccccccccccccccc" /><path
     id="path28"
     style="display:inline;fill:#000000;fill-opacity:1;stroke-width:0.79375"
     inkscape:label="Huecos"
     d="m 68.576525,97.019438 c -2.498207,-0.02118 -4.460983,1.46741 -5.136637,3.242182 -0.07119,0.187 0.03074,0.27023 0.211356,0.18397 2.903724,-1.386858 5.184984,-1.37247 7.628992,-1.724964 -0.448824,-1.846768 -1.99041,-1.701188 -2.703714,-1.701188 z m 2.570902,6.558772 -3.257682,0.015 c -0.05973,2.8e-4 -0.108008,0.0488 -0.108004,0.10852 v 6.87245 c 9e-6,0.0596 0.04836,0.10799 0.108004,0.108 h 3.257682 c 0.05965,-1e-5 0.107995,-0.0484 0.108004,-0.108 v -6.88847 c -1.6e-5,-0.0596 -0.04845,-0.10776 -0.108004,-0.10749 z m -5.473051,0.55914 c -0.01144,-5.2e-4 -0.02282,0.002 -0.03307,0.007 l -1.755449,0.86299 c -0.05918,0.0292 -0.09663,0.0895 -0.09663,0.15555 v 6.40116 c -1.4e-4,0.0515 0.05205,0.0872 0.09974,0.0677 l 1.749764,-0.71986 c 0.06046,-0.0249 0.09986,-0.0834 0.09973,-0.14882 v -6.55878 c 1.3e-5,-0.0357 -0.02841,-0.0647 -0.06408,-0.0667 z m 7.802108,0.0651 c -0.04683,-0.0199 -0.09886,0.0142 -0.09922,0.0651 v 6.51072 c -1.36e-4,0.0653 0.0396,0.12409 0.100253,0.14831 l 1.968355,0.78445 c 0.04813,0.0191 0.100356,-0.0164 0.100252,-0.0682 v -6.44818 c -1.9e-5,-0.0655 -0.03905,-0.12461 -0.09922,-0.15038 z m -6.799585,11.25926 c -1.158097,0.0174 -2.550655,0.31134 -4.234367,1.1529 -0.154973,0.0775 -0.27656,0.28392 -0.273368,0.45734 l 0.02377,1.27796 c 0.0032,0.17342 0.13259,0.25384 0.290422,0.1819 2.607738,-1.18848 5.641784,-0.56553 8.11558,-0.92358 0.171646,-0.0248 -0.335334,-1.35465 -0.497444,-1.41633 -0.833915,-0.31746 -1.935615,-0.75259 -3.424597,-0.73019 z m -0.077,5.45703 c -1.465641,0.011 -2.891473,0.19655 -4.123779,1.23817 -0.07688,0.065 -0.137459,0.20157 -0.137459,0.30231 v 2.2779 c 0,0.10074 0.08063,0.16844 0.179834,0.15089 2.04065,-0.36082 4.324064,-0.85591 5.555733,-0.76998 0.100304,0.007 0.194101,-0.0624 0.207739,-0.16226 0.133808,-0.97928 0.09181,-1.91205 -0.0062,-2.83032 -0.01069,-0.10014 -0.101848,-0.183 -0.202572,-0.185 -0.49159,-0.01 -0.984746,-0.0254 -1.473295,-0.0217 z m -1.833479,8.60413 c -1.710285,0.0144 -3.556731,0.32313 -5.649785,1.16582 -0.197466,0.0795 -0.203324,0.23251 -0.04341,0.37259 0.435801,0.38175 0.734663,0.97172 0.875399,1.80196 0.03557,0.20981 0.2123,0.319 0.411344,0.24339 4.046716,-1.53704 6.895236,-2.06134 9.85728,-2.68201 0.208228,-0.0436 0.208864,-0.11777 0.001,-0.16433 -1.749579,-0.39211 -3.513541,-0.75374 -5.451863,-0.73742 z m 0.271301,5.41621 c -1.388456,-0.0331 -2.862357,0.22869 -4.549077,1.22008 -0.220625,0.12968 -0.413096,0.44942 -0.435632,0.70435 l -5.901421,66.75903 c -0.03912,0.44249 0.23531,0.99368 0.576227,1.27796 0.929851,0.77535 1.786474,1.83839 2.738969,2.58138 0.409695,0.31958 0.817745,0.0946 0.855529,-0.42449 l 5.065379,-69.58462 c 0.01495,-0.2555 0.207441,-0.56501 0.433049,-0.68574 1.542405,-0.82538 2.653477,-1.16966 3.653524,-1.3901 0.249923,-0.0551 0.249578,-0.12997 -0.0026,-0.17363 -0.798593,-0.13828 -1.600887,-0.26437 -2.43396,-0.28422 z m 11.247892,8.59896 c -10e-7,2e-5 -0.146472,-0.008 -0.322978,0.0191 -0.671255,0.10441 -1.315517,0.62105 -1.715657,1.68878 -0.09453,0.25226 -0.14701,0.68299 -0.144694,0.9524 l 0.04031,4.65811 c 0.0017,0.17973 0.146864,0.32509 0.326595,0.32711 l 3.690215,0.0403 c 0.178541,0.002 0.324779,-0.14133 0.326078,-0.31988 l 0.02636,-4.64364 c 0.0017,-0.29513 -0.04169,-0.77129 -0.148828,-1.04593 -0.388002,-0.99464 -1.226235,-1.64639 -2.077393,-1.67638 z m -0.04548,27.1818 c -10e-7,2e-5 -0.146472,-0.008 -0.322978,0.0191 -0.680289,0.10584 -1.332949,0.63525 -1.731677,1.73271 -0.08318,0.22894 -0.130768,0.61839 -0.128674,0.86196 l 0.04082,4.70514 c 0.0017,0.17974 0.146855,0.32511 0.326595,0.32711 l 3.689697,0.0403 c 0.178736,0.002 0.325047,-0.14164 0.326079,-0.32039 l 0.02687,-4.71341 c 0.0015,-0.25631 -0.03682,-0.66942 -0.12454,-0.91002 -0.376136,-1.0317 -1.232415,-1.71188 -2.102197,-1.74253 z m -2.582788,24.70805 c 10e-7,0 -0.145563,-0.007 -0.324012,0.005 -1.445568,0.0935 -2.866104,1.17738 -3.674711,3.6344 -0.110199,0.33485 -0.178662,0.89801 -0.175699,1.25057 l 0.105556,9.83248 c 0.0017,0.17973 0.146864,0.32509 0.326595,0.32711 l 7.618525,-0.008 c 0.178365,0.002 0.324318,-0.14151 0.325561,-0.31988 l 0.05478,-9.7348 c 0.0022,-0.38915 -0.05541,-1.01557 -0.174149,-1.38596 -0.681298,-2.12523 -2.368339,-3.53844 -4.082438,-3.6003 z"
     transform="translate(-24.717352,-82.866254)"
     inkscape:path-effect="#path-effect36"
     inkscape:original-d="m 68.576525,97.019438 c -2.498207,-0.02118 -4.460983,1.46741 -5.136637,3.242182 -0.07119,0.187 0.03074,0.27023 0.211356,0.18397 2.903724,-1.386858 5.184984,-1.37247 7.628992,-1.724964 -0.448824,-1.846768 -1.99041,-1.701188 -2.703714,-1.701188 z m 2.570902,6.558772 -3.257682,0.015 c -0.05973,2.8e-4 -0.108008,0.0488 -0.108004,0.10852 v 6.87245 c 9e-6,0.0596 0.04836,0.10799 0.108004,0.108 h 3.257682 c 0.05965,-1e-5 0.107995,-0.0484 0.108004,-0.108 v -6.88847 c -1.6e-5,-0.0596 -0.04845,-0.10776 -0.108004,-0.10749 z m -5.473051,0.55914 c -0.01144,-5.2e-4 -0.02282,0.002 -0.03307,0.007 l -1.755449,0.86299 c -0.05918,0.0292 -0.09663,0.0895 -0.09663,0.15555 v 6.40116 c -1.4e-4,0.0515 0.05205,0.0872 0.09974,0.0677 l 1.749764,-0.71986 c 0.06046,-0.0249 0.09986,-0.0834 0.09973,-0.14882 v -6.55878 c 1.3e-5,-0.0357 -0.02841,-0.0647 -0.06408,-0.0667 z m 7.802108,0.0651 c -0.04683,-0.0199 -0.09886,0.0142 -0.09922,0.0651 v 6.51072 c -1.36e-4,0.0653 0.0396,0.12409 0.100253,0.14831 l 1.968355,0.78445 c 0.04813,0.0191 0.100356,-0.0164 0.100252,-0.0682 v -6.44818 c -1.9e-5,-0.0655 -0.03905,-0.12461 -0.09922,-0.15038 z m -6.799585,11.25926 c -1.158097,0.0174 -2.550655,0.31134 -4.234367,1.1529 -0.154973,0.0775 -0.27656,0.28392 -0.273368,0.45734 l 0.02377,1.27796 c 0.0032,0.17342 0.13259,0.25384 0.290422,0.1819 2.607738,-1.18848 5.641784,-0.56553 8.11558,-0.92358 0.171646,-0.0248 -0.335334,-1.35465 -0.497444,-1.41633 -0.833915,-0.31746 -1.935615,-0.75259 -3.424597,-0.73019 z m -0.077,5.45703 c -1.465641,0.011 -2.891473,0.19655 -4.123779,1.23817 -0.07688,0.065 -0.137459,0.20157 -0.137459,0.30231 v 2.2779 c 0,0.10074 0.08063,0.16844 0.179834,0.15089 2.04065,-0.36082 4.324064,-0.85591 5.555733,-0.76998 0.100304,0.007 0.194101,-0.0624 0.207739,-0.16226 0.133808,-0.97928 0.09181,-1.91205 -0.0062,-2.83032 -0.01069,-0.10014 -0.101848,-0.183 -0.202572,-0.185 -0.49159,-0.01 -0.984746,-0.0254 -1.473295,-0.0217 z m -1.833479,8.60413 c -1.710285,0.0144 -3.556731,0.32313 -5.649785,1.16582 -0.197466,0.0795 -0.203324,0.23251 -0.04341,0.37259 0.435801,0.38175 0.734663,0.97172 0.875399,1.80196 0.03557,0.20981 0.2123,0.319 0.411344,0.24339 4.046716,-1.53704 6.895236,-2.06134 9.85728,-2.68201 0.208228,-0.0436 0.208864,-0.11777 0.001,-0.16433 -1.749579,-0.39211 -3.513541,-0.75374 -5.451863,-0.73742 z m 0.271301,5.41621 c -1.388456,-0.0331 -2.862357,0.22869 -4.549077,1.22008 -0.220625,0.12968 -0.413096,0.44942 -0.435632,0.70435 l -5.972245,67.56022 c 1.452261,0.91643 2.655218,2.78358 4.173135,3.57349 l 5.133793,-70.52445 c 0.01495,-0.2555 0.207441,-0.56501 0.433049,-0.68574 1.542405,-0.82538 2.653477,-1.16966 3.653524,-1.3901 0.249923,-0.0551 0.249578,-0.12997 -0.0026,-0.17363 -0.798593,-0.13828 -1.600887,-0.26437 -2.43396,-0.28422 z m 11.247892,8.59896 c -10e-7,2e-5 -0.146472,-0.008 -0.322978,0.0191 -0.671255,0.10441 -1.315517,0.62105 -1.715657,1.68878 -0.09453,0.25226 -0.14701,0.68299 -0.144694,0.9524 l 0.04031,4.65811 c 0.0017,0.17973 0.146864,0.32509 0.326595,0.32711 l 3.690215,0.0403 c 0.178541,0.002 0.324779,-0.14133 0.326078,-0.31988 l 0.02636,-4.64364 c 0.0017,-0.29513 -0.04169,-0.77129 -0.148828,-1.04593 -0.388002,-0.99464 -1.226235,-1.64639 -2.077393,-1.67638 z m -0.04548,27.1818 c -10e-7,2e-5 -0.146472,-0.008 -0.322978,0.0191 -0.680289,0.10584 -1.332949,0.63525 -1.731677,1.73271 -0.08318,0.22894 -0.130768,0.61839 -0.128674,0.86196 l 0.04082,4.70514 c 0.0017,0.17974 0.146855,0.32511 0.326595,0.32711 l 3.689697,0.0403 c 0.178736,0.002 0.325047,-0.14164 0.326079,-0.32039 l 0.02687,-4.71341 c 0.0015,-0.25631 -0.03682,-0.66942 -0.12454,-0.91002 -0.376136,-1.0317 -1.232415,-1.71188 -2.102197,-1.74253 z m -2.582788,24.70805 c 10e-7,0 -0.145563,-0.007 -0.324012,0.005 -1.445568,0.0935 -2.866104,1.17738 -3.674711,3.6344 -0.110199,0.33485 -0.178662,0.89801 -0.175699,1.25057 l 0.105556,9.83248 c 0.0017,0.17973 0.146864,0.32509 0.326595,0.32711 l 7.618525,-0.008 c 0.178365,0.002 0.324318,-0.14151 0.325561,-0.31988 l 0.05478,-9.7348 c 0.0022,-0.38915 -0.05541,-1.01557 -0.174149,-1.38596 -0.681298,-2.12523 -2.368339,-3.53844 -4.082438,-3.6003 z"
     sodipodi:nodetypes="ssccssccccccccsccccsccccccccccccccccsccccccsssssscscscsscssscscccssccccsssssscsccccccsssscsccccccsssscsccccccscs" /><path
     style="fill:#000000;fill-opacity:1;stroke:none;stroke-width:0.19623;stroke-dasharray:none"
     d="m 61.377275,23.234991 a 1.0651104,1.0651104 35.499766 0 0 1.283535,0.915529 l 43.94873,-4.38785 c 1.78878,-0.178592 2.07396,-1.206113 0.77273,-2.445014 -1.37928,-1.313217 -2.61473,-2.649449 -4.16218,-3.93576 -0.46533,-0.386801 -1.33565,-0.569157 -1.92484,-0.430797 l -39.036538,9.167086 a 1.1426778,1.1426778 128.28219 0 0 -0.881437,1.116806 z"
     id="path22"
     inkscape:path-effect="#path-effect23"
     inkscape:original-d="m 61.373783,22.325996 0.0075,1.952272 48.467127,-4.838967 c -2.88521,-2.183879 -4.60113,-4.554847 -7.48634,-6.738726 z"
     sodipodi:nodetypes="ccccc" /><path
     style="fill:#000000;fill-opacity:1;stroke:none;stroke-width:0.197084;stroke-dasharray:none"
     d="m 61.307143,27.748507 c 0,0.529087 0.60192,1.043072 1.344444,1.147912 7.569539,1.068774 44.885303,6.329413 54.821413,7.574291 1.34148,0.168072 2.01087,-0.754075 1.43336,-1.977439 -0.56607,-1.199137 -1.27612,-2.675022 -1.86444,-3.891736 -0.63097,-1.304918 -2.32056,-2.400859 -3.76948,-2.449956 L 62.664155,26.4367 a 1.3125605,1.3125605 135.97037 0 0 -1.357012,1.311807 z"
     id="path23"
     inkscape:path-effect="#path-effect24"
     inkscape:original-d="m 61.307143,26.390717 v 2.315768 c 0,0 58.600157,8.287116 58.600157,8.022456 0,-0.264659 -4.01137,-8.488464 -4.01137,-8.488464 z"
     sodipodi:nodetypes="ccscc" /></svg>
